<svg xmlns="http://www.w3.org/2000/svg" xmlns:xlink="http://www.w3.org/1999/xlink" width="500" zoomAndPan="magnify" viewBox="0 0 375 374.999991" height="500" preserveAspectRatio="xMidYMid meet" version="1.0"><defs><g/></defs><rect x="-37.5" width="450" fill="#ffffff" y="-37.499999" height="449.999989" fill-opacity="1"/><rect x="-37.5" width="450" fill="#000000" y="-37.499999" height="449.999989" fill-opacity="1"/><g fill="#e4e2dd" fill-opacity="1"><g transform="translate(52.50657, 207.687265)"><g><path d="M 39.75 0 L 37.65625 -26.1875 L 37.390625 -26.1875 L 28.328125 -0.265625 L 22.328125 -0.265625 L 13.28125 -26.1875 L 13.015625 -26.1875 L 10.921875 0 L 0.859375 0 L 4.828125 -44.1875 L 15.53125 -44.1875 L 25.328125 -18.6875 L 35.140625 -44.1875 L 45.84375 -44.1875 L 49.8125 0 Z M 39.75 0 "/></g></g></g><g fill="#e4e2dd" fill-opacity="1"><g transform="translate(98.61492, 207.687265)"><g><path d="M 1.234375 -22.125 C 1.234375 -28.507812 3.410156 -33.914062 7.765625 -38.34375 C 12.117188 -42.78125 17.367188 -45 23.515625 -45 C 29.691406 -45 34.941406 -42.789062 39.265625 -38.375 C 43.585938 -33.96875 45.75 -28.550781 45.75 -22.125 C 45.75 -15.65625 43.625 -10.21875 39.375 -5.8125 C 35.125 -1.40625 29.835938 0.796875 23.515625 0.796875 C 17.046875 0.796875 11.710938 -1.382812 7.515625 -5.75 C 3.328125 -10.125 1.234375 -15.582031 1.234375 -22.125 Z M 12.109375 -22.125 C 12.109375 -19.800781 12.460938 -17.679688 13.171875 -15.765625 C 13.890625 -13.859375 15.140625 -12.242188 16.921875 -10.921875 C 18.710938 -9.597656 20.910156 -8.9375 23.515625 -8.9375 C 27.265625 -8.9375 30.09375 -10.222656 32 -12.796875 C 33.914062 -15.367188 34.875 -18.476562 34.875 -22.125 C 34.875 -25.726562 33.898438 -28.820312 31.953125 -31.40625 C 30.003906 -34 27.191406 -35.296875 23.515625 -35.296875 C 19.867188 -35.296875 17.054688 -34 15.078125 -31.40625 C 13.097656 -28.820312 12.109375 -25.726562 12.109375 -22.125 Z M 12.109375 -22.125 "/></g></g></g><g fill="#e4e2dd" fill-opacity="1"><g transform="translate(141.028074, 207.687265)"><g><path d="M 3.21875 -44.1875 L 16.015625 -44.1875 C 22.160156 -44.1875 27.410156 -42.085938 31.765625 -37.890625 C 36.117188 -33.703125 38.296875 -28.445312 38.296875 -22.125 C 38.296875 -15.769531 36.125 -10.492188 31.78125 -6.296875 C 27.445312 -2.097656 22.191406 0 16.015625 0 L 3.21875 0 Z M 13.28125 -9 L 14.84375 -9 C 18.519531 -9 21.523438 -10.238281 23.859375 -12.71875 C 26.203125 -15.195312 27.390625 -18.3125 27.421875 -22.0625 C 27.421875 -25.8125 26.25 -28.9375 23.90625 -31.4375 C 21.570312 -33.9375 18.550781 -35.1875 14.84375 -35.1875 L 13.28125 -35.1875 Z M 13.28125 -9 "/></g></g></g><g fill="#e4e2dd" fill-opacity="1"><g transform="translate(175.997265, 207.687265)"><g><path d="M 3.21875 -44.1875 L 19.34375 -44.1875 C 23.832031 -44.1875 27.46875 -43.023438 30.25 -40.703125 C 33.039062 -38.378906 34.4375 -35.003906 34.4375 -30.578125 C 34.4375 -26.148438 33.023438 -22.675781 30.203125 -20.15625 C 27.390625 -17.644531 23.769531 -16.390625 19.34375 -16.390625 L 13.28125 -16.390625 L 13.28125 0 L 3.21875 0 Z M 13.28125 -24.421875 L 16.125 -24.421875 C 18.375 -24.421875 20.21875 -24.875 21.65625 -25.78125 C 23.101562 -26.695312 23.828125 -28.191406 23.828125 -30.265625 C 23.828125 -32.367188 23.101562 -33.875 21.65625 -34.78125 C 20.21875 -35.695312 18.375 -36.15625 16.125 -36.15625 L 13.28125 -36.15625 Z M 13.28125 -24.421875 "/></g></g></g><g fill="#e4e2dd" fill-opacity="1"><g transform="translate(207.110594, 207.687265)"><g><path d="M 25.65625 -44.1875 L 43.5 0 L 32.671875 0 L 29.40625 -8.84375 L 12.59375 -8.84375 L 9.3125 0 L -1.5 0 L 16.34375 -44.1875 Z M 25.984375 -17.671875 L 21.046875 -30.53125 L 20.9375 -30.53125 L 16.015625 -17.671875 Z M 25.984375 -17.671875 "/></g></g></g><g fill="#e4e2dd" fill-opacity="1"><g transform="translate(244.543259, 207.687265)"><g><path d="M 26.734375 -9.109375 C 28.265625 -9.109375 29.753906 -9.335938 31.203125 -9.796875 C 32.648438 -10.265625 33.710938 -10.710938 34.390625 -11.140625 L 35.40625 -11.84375 L 39.6875 -3.265625 C 39.539062 -3.160156 39.34375 -3.019531 39.09375 -2.84375 C 38.84375 -2.664062 38.265625 -2.332031 37.359375 -1.84375 C 36.453125 -1.363281 35.476562 -0.941406 34.4375 -0.578125 C 33.40625 -0.222656 32.050781 0.09375 30.375 0.375 C 28.695312 0.65625 26.960938 0.796875 25.171875 0.796875 C 21.066406 0.796875 17.175781 -0.207031 13.5 -2.21875 C 9.820312 -4.238281 6.859375 -7.015625 4.609375 -10.546875 C 2.359375 -14.085938 1.234375 -17.910156 1.234375 -22.015625 C 1.234375 -25.117188 1.894531 -28.097656 3.21875 -30.953125 C 4.539062 -33.816406 6.296875 -36.265625 8.484375 -38.296875 C 10.679688 -40.328125 13.242188 -41.953125 16.171875 -43.171875 C 19.097656 -44.390625 22.097656 -45 25.171875 -45 C 28.023438 -45 30.65625 -44.65625 33.0625 -43.96875 C 35.476562 -43.289062 37.1875 -42.613281 38.1875 -41.9375 L 39.6875 -40.921875 L 35.40625 -32.359375 C 35.15625 -32.566406 34.78125 -32.820312 34.28125 -33.125 C 33.78125 -33.425781 32.78125 -33.828125 31.28125 -34.328125 C 29.78125 -34.828125 28.265625 -35.078125 26.734375 -35.078125 C 24.296875 -35.078125 22.113281 -34.6875 20.1875 -33.90625 C 18.257812 -33.125 16.734375 -32.085938 15.609375 -30.796875 C 14.484375 -29.515625 13.625 -28.128906 13.03125 -26.640625 C 12.445312 -25.160156 12.15625 -23.65625 12.15625 -22.125 C 12.15625 -18.769531 13.414062 -15.757812 15.9375 -13.09375 C 18.457031 -10.4375 22.054688 -9.109375 26.734375 -9.109375 Z M 26.734375 -9.109375 "/></g></g></g><g fill="#e4e2dd" fill-opacity="1"><g transform="translate(280.315756, 207.687265)"><g><path d="M 43.4375 0 L 29.5625 0 L 13.28125 -18.75 L 13.28125 0 L 3.21875 0 L 3.21875 -44.1875 L 13.28125 -44.1875 L 13.28125 -26.140625 L 28.4375 -44.1875 L 40.65625 -44.1875 L 22.875 -23.25 Z M 43.4375 0 "/></g></g></g><path stroke-linecap="butt" transform="matrix(0.75, 0, 0, 0.75, 37.500002, 220.060942)" fill="none" stroke-linejoin="miter" d="M -0.00000271667 5.002078 L 84.432294 5.002078 " stroke="#e4e2dd" stroke-width="10" stroke-opacity="1" stroke-miterlimit="4"/><path stroke-linecap="butt" transform="matrix(0, 0.75, -0.75, 0, 44.996157, 163.467265)" fill="none" stroke-linejoin="miter" d="M 0.00197965 5.000084 L 82.465527 5.000084 " stroke="#e4e2dd" stroke-width="10" stroke-opacity="1" stroke-miterlimit="4"/><path stroke-linecap="butt" transform="matrix(-0.75, 0, 0, -0.75, 337.491544, 154.931342)" fill="none" stroke-linejoin="miter" d="M -0.000858083 5.002206 L 84.431439 5.002206 " stroke="#e4e2dd" stroke-width="10" stroke-opacity="1" stroke-miterlimit="4"/><path stroke-linecap="butt" transform="matrix(0, -0.75, 0.75, 0, 329.995413, 211.525021)" fill="none" stroke-linejoin="miter" d="M 0.00211068 5.000908 L 82.465658 5.000908 " stroke="#e4e2dd" stroke-width="10" stroke-opacity="1" stroke-miterlimit="4"/></svg>